# xmcd
#
# Track frame offsets:
#	150
#	21655
#	40262
#	64137
#	79874
#
# Disc length: 1301 seconds
#
# Revision: 1
# Processed by: cddbd v1.5.1PL2 Copyright (c) Steve Scherf et al.
# Submitted via: audiograbber 1.83.01
#
DISCID=3f051305
DTITLE=Bottle O' Blooze - Bottle O' Blooze
DYEAR=1900
DGENRE=
TTITLE0=Booze
TTITLE1=Broken Down Car
TTITLE2=Don't Dream It's Over
TTITLE3=Call Me
TTITLE4=Foxy Lady
EXTD=
EXTT0=
EXTT1=
EXTT2=
EXTT3=
EXTT4=
PLAYORDER=
